<svg width="168" height="168" viewBox="0 0 168 168" fill="none" xmlns="http://www.w3.org/2000/svg">
<path d="M91.525 138.95C92.8083 139.183 94.0333 139.358 95.2 139.475C96.3667 139.592 97.5917 139.65 98.875 139.65C104.825 139.65 110.658 138.689 116.375 136.766C122.092 134.839 127.458 131.95 132.475 128.1C115.442 122.5 101.705 112.38 91.266 97.741C80.822 83.097 75.4833 66.85 75.25 49C75.25 46.0834 75.3667 43.1947 75.6 40.334C75.8333 37.478 76.2417 34.65 76.825 31.85C67.025 35.9334 59.2083 42.028 53.375 50.134C47.5417 58.2447 44.0417 67.2 42.875 77C49.875 77.2334 56.1447 79.275 61.684 83.125C67.228 86.975 71.3417 91.9334 74.025 98C80.675 98.2334 86.3333 100.711 91 105.434C95.6667 110.161 98 115.85 98 122.5C98 125.65 97.4167 128.625 96.25 131.425C95.0833 134.225 93.5083 136.733 91.525 138.95Z" fill="#FFEA00"/>
<path fill-rule="evenodd" clip-rule="evenodd" d="M82.684 151.816C87.878 153.039 93.275 153.65 98.875 153.65C109.258 153.65 119.089 151.345 128.366 146.734C137.639 142.128 145.425 136.15 151.725 128.8C152.308 128.1 152.747 127.4 153.041 126.7C153.33 126 153.475 125.242 153.475 124.425C153.475 122.792 152.95 121.275 151.9 119.875C150.85 118.475 149.45 117.658 147.7 117.425C130.783 114.625 116.814 106.692 105.791 93.625C94.7637 80.5584 89.25 65.6834 89.25 49C89.25 44.8 89.6 40.5417 90.3 36.225C91 31.9084 92.1083 27.7667 93.625 23.8C93.7417 23.45 93.8583 23.0697 93.975 22.659C94.0917 22.253 94.15 21.875 94.15 21.525C94.15 19.6584 93.5083 18.025 92.225 16.625C90.9417 15.225 89.3083 14.525 87.325 14.525C86.5083 14.525 85.4583 14.6697 84.175 14.959C82.8917 15.253 81.7833 15.5167 80.85 15.75C65.1 19.8334 52.6167 28.028 43.4 40.334C34.1833 52.6447 29.2833 65.7417 28.7 79.625C31.675 78.75 38.675 77 42.875 77C44.0417 67.2 47.5417 58.2447 53.375 50.134C59.2083 42.028 67.025 35.9334 76.825 31.85C76.2417 34.65 75.8333 37.478 75.6 40.334C75.3667 43.1947 75.25 46.0834 75.25 49C75.4833 66.85 80.822 83.097 91.266 97.741C101.705 112.38 115.442 122.5 132.475 128.1C127.458 131.95 122.092 134.839 116.375 136.766C110.658 138.689 104.825 139.65 98.875 139.65C97.5917 139.65 96.3667 139.592 95.2 139.475C94.0333 139.358 92.8083 139.183 91.525 138.95C86.765 143.71 74.725 146.3 69.3 147C73.0333 148.983 77.4947 150.589 82.684 151.816Z" fill="#FFEA00"/>
<path d="M42 132.475H73.5C76.4167 132.475 78.8947 131.453 80.934 129.409C82.978 127.37 84 124.892 84 121.975C84 119.058 82.978 116.58 80.934 114.541C78.8947 112.497 76.4167 111.475 73.5 111.475H63C63 105.642 60.9583 100.683 56.875 96.6C52.7917 92.5167 47.8333 90.475 42 90.475C36.1667 90.475 31.2083 92.5167 27.125 96.6C23.0417 100.683 21 105.642 21 111.475C21 117.308 23.0417 122.267 27.125 126.35C31.2083 130.433 36.1667 132.475 42 132.475Z" fill="white"/>
</svg>
