<svg width="168" height="168" viewBox="0 0 168 168" fill="none" xmlns="http://www.w3.org/2000/svg">
<path d="M31.5 136.5C30.6052 136.5 29.7254 136.27 28.944 135.834C28.1627 135.398 27.5058 134.77 27.0357 134.008C26.5656 133.247 26.2979 132.378 26.258 131.484C26.2181 130.59 26.4074 129.701 26.8078 128.901L34.6828 113.151C35.3059 111.905 36.3982 110.959 37.7193 110.519C39.0405 110.079 40.4823 110.181 41.7277 110.805C42.973 111.428 43.9198 112.52 44.3597 113.841C44.7997 115.162 44.6969 116.604 44.0738 117.849L36.1988 133.599C35.7623 134.472 35.0915 135.205 34.2615 135.717C33.4316 136.23 32.4753 136.501 31.5 136.5ZM39.375 157.5C38.4802 157.5 37.6004 157.27 36.819 156.834C36.0377 156.398 35.3808 155.77 34.9107 155.008C34.4406 154.247 34.1729 153.378 34.133 152.484C34.0931 151.59 34.2824 150.701 34.6828 149.901L39.9328 139.401C40.5559 138.155 41.6482 137.209 42.9694 136.769C43.6235 136.551 44.3142 136.464 45.0019 136.513C45.6897 136.562 46.361 136.746 46.9777 137.055C47.5943 137.363 48.1441 137.79 48.5957 138.311C49.0473 138.832 49.3919 139.437 49.6097 140.091C49.8276 140.745 49.9145 141.436 49.8654 142.124C49.8163 142.811 49.6323 143.483 49.3238 144.099L44.0738 154.599C43.6373 155.472 42.9665 156.205 42.1365 156.717C41.3066 157.23 40.3503 157.501 39.375 157.5ZM123.375 136.5C122.48 136.5 121.6 136.27 120.819 135.834C120.038 135.398 119.381 134.77 118.911 134.008C118.441 133.247 118.173 132.378 118.133 131.484C118.093 130.59 118.282 129.701 118.683 128.901L126.558 113.151C127.181 111.905 128.273 110.959 129.594 110.519C130.916 110.079 132.357 110.181 133.603 110.805C134.848 111.428 135.795 112.52 136.235 113.841C136.675 115.162 136.572 116.604 135.949 117.849L128.074 133.599C127.637 134.472 126.966 135.205 126.137 135.717C125.307 136.23 124.35 136.501 123.375 136.5ZM131.25 157.5C130.355 157.5 129.475 157.27 128.694 156.834C127.913 156.398 127.256 155.77 126.786 155.008C126.316 154.247 126.048 153.378 126.008 152.484C125.968 151.59 126.157 150.701 126.558 149.901L131.808 139.401C132.431 138.155 133.523 137.209 134.844 136.769C136.166 136.329 137.607 136.431 138.853 137.055C140.098 137.678 141.045 138.77 141.485 140.091C141.925 141.412 141.822 142.854 141.199 144.099L135.949 154.599C135.512 155.472 134.841 156.205 134.012 156.717C133.182 157.23 132.225 157.501 131.25 157.5Z" fill="white"/>
<path d="M133.166 44.9203C130.972 34.5212 125.497 25.1012 117.547 18.0468C111.652 12.7725 104.593 8.96602 96.9465 6.93784C89.3001 4.90966 81.2827 4.71716 73.5478 6.37603C65.8129 8.0349 58.5796 11.4982 52.4374 16.4835C46.2952 21.4689 41.4181 27.8352 38.2036 35.0634C19.8516 36.1462 5.25 51.4008 5.25 69.9989C5.25 89.2992 20.9705 105 40.2937 105H62.0517L57.8222 130.387C57.6969 131.139 57.7368 131.909 57.9393 132.644C58.1418 133.379 58.502 134.061 58.9947 134.643C59.4875 135.225 60.101 135.692 60.7927 136.013C61.4844 136.334 62.2376 136.5 63 136.5H73.5V157.5C73.5019 158.611 73.8559 159.692 74.5112 160.589C75.1665 161.485 76.0892 162.151 77.1468 162.49C78.2043 162.829 79.3422 162.824 80.3967 162.476C81.4513 162.128 82.3682 161.454 83.0156 160.552L109.266 123.802C109.826 123.017 110.16 122.093 110.23 121.132C110.3 120.17 110.104 119.208 109.663 118.351C109.223 117.493 108.554 116.773 107.732 116.271C106.909 115.768 105.964 115.501 105 115.5H95.9733L98.5983 105H132.671C140.575 104.968 148.148 101.823 153.749 96.2457C159.35 90.6684 162.527 83.1087 162.592 75.2048C162.657 67.301 159.605 59.6899 154.097 54.021C148.589 48.3522 141.069 45.0824 133.166 44.9203Z" fill="white"/>
</svg>
