<svg width="168" height="168" viewBox="0 0 168 168" fill="none" xmlns="http://www.w3.org/2000/svg">
<path d="M145.194 91.315C140.45 92.5748 135.563 93.2125 130.655 93.212C115.71 93.212 101.675 87.402 91.133 76.86C84.2103 69.8974 79.2335 61.242 76.6984 51.7565C74.1634 42.271 74.1588 32.2868 76.685 22.799C77.0005 21.6127 76.9985 20.3643 76.6792 19.1791C76.3599 17.9938 75.7345 16.9134 74.8658 16.0461C73.9972 15.1788 72.9157 14.5552 71.7299 14.2379C70.5441 13.9205 69.2958 13.9205 68.11 14.238C56.2321 17.4033 45.3954 23.6363 36.687 32.312C9.401 59.598 9.401 104.013 36.687 131.313C43.1727 137.835 50.8874 143.006 59.3848 146.526C67.8821 150.047 76.9933 151.847 86.191 151.823C95.3863 151.849 104.495 150.05 112.99 146.53C121.486 143.011 129.198 137.841 135.681 131.32C144.363 122.61 150.599 111.767 153.762 99.883C154.076 98.6972 154.074 97.4497 153.754 96.2653C153.435 95.0808 152.811 94.0009 151.943 93.1335C151.076 92.2661 149.996 91.6416 148.812 91.3225C147.627 91.0034 146.38 91.0008 145.194 91.315ZM125.79 121.422C120.603 126.638 114.433 130.773 107.637 133.588C100.841 136.403 93.554 137.843 86.198 137.823C78.8395 137.841 71.5505 136.401 64.7523 133.584C57.9541 130.768 51.7817 126.632 46.592 121.415C24.766 99.582 24.766 64.05 46.592 42.217C50.8095 38.0042 55.6787 34.4989 61.012 31.836C60.2313 41.9094 61.6347 52.0326 65.1261 61.5138C68.6175 70.995 74.1147 79.6106 81.242 86.772C88.3876 93.9216 97.0007 99.434 106.486 102.928C115.971 106.422 126.102 107.815 136.178 107.009C133.501 112.333 129.994 117.198 125.79 121.422Z" fill="#FFEA00"/>
<path d="M125.79 121.422C120.603 126.638 114.433 130.773 107.637 133.588C100.841 136.403 93.554 137.843 86.198 137.823C78.8395 137.841 71.5505 136.401 64.7523 133.584C57.9541 130.768 51.7817 126.632 46.592 121.415C24.766 99.582 24.766 64.05 46.592 42.217C50.8095 38.0042 55.6787 34.4989 61.012 31.836C60.2313 41.9094 61.6347 52.0326 65.1261 61.5138C68.6175 70.995 74.1147 79.6106 81.242 86.772C88.3876 93.9216 97.0007 99.434 106.486 102.928C115.971 106.422 126.102 107.815 136.178 107.009C133.501 112.333 129.994 117.198 125.79 121.422Z" fill="#FFEA00"/>
</svg>
