<svg width="168" height="168" viewBox="0 0 168 168" fill="none" xmlns="http://www.w3.org/2000/svg">
<path fill-rule="evenodd" clip-rule="evenodd" d="M127.603 81.473C125.772 63.742 113.19 49.063 91.0105 49.063C68.831 49.063 56.2625 63.6265 54.4215 81.473H53.8615C39.585 81.473 28.014 93.016 28.014 107.25C28.014 121.488 39.585 133.028 53.858 133.028H128.163C142.436 133.028 154.007 121.488 154.007 107.25C154.007 93.016 142.436 81.473 128.163 81.473H127.603Z" fill="white"/>
<path d="M70 28C75.3827 27.9982 80.6842 29.3127 85.4426 31.8292C90.2009 34.3456 94.2716 37.9875 97.3 42.4375C95.2095 42.1853 93.1056 42.0603 91 42.063C69.727 42.063 54.334 54.096 49.14 72.212L48.86 73.227L48.4575 74.8895L47.0085 75.159C41.4989 76.3239 36.3818 78.8869 32.1493 82.6015C27.9167 86.3161 24.7112 91.0573 22.841 96.369C19.069 93.4258 16.3101 89.3784 14.9491 84.7917C13.5881 80.205 13.6931 75.3078 15.2493 70.7836C16.8056 66.2594 19.7354 62.334 23.63 59.5551C27.5246 56.7762 32.1896 55.2825 36.974 55.2825H37.471C38.8238 47.638 42.8253 40.7139 48.7735 35.7251C54.7217 30.7363 62.2367 28.0013 70 28Z" fill="#E4E4E4"/>
</svg>
