<svg width="168" height="168" viewBox="0 0 168 168" fill="none" xmlns="http://www.w3.org/2000/svg">
<path d="M28 70C26.1435 70 24.363 69.2625 23.0503 67.9497C21.7375 66.637 21 64.8565 21 63C21 61.1435 21.7375 59.363 23.0503 58.0503C24.363 56.7375 26.1435 56 28 56H84C87.713 56 91.274 54.525 93.8995 51.8995C96.525 49.274 98 45.713 98 42C98 38.287 96.525 34.726 93.8995 32.1005C91.274 29.475 87.713 28 84 28C80.15 28 76.65 29.54 74.13 32.13C73.4929 32.8099 72.7232 33.3518 71.8683 33.7222C71.0135 34.0927 70.0917 34.2839 69.16 34.2839C68.2283 34.2839 67.3065 34.0927 66.4517 33.7222C65.5968 33.3518 64.8271 32.8099 64.19 32.13C61.46 29.4 61.46 24.92 64.19 22.19C69.3 17.15 76.3 14 84 14C91.4261 14 98.548 16.95 103.799 22.201C109.05 27.452 112 34.5739 112 42C112 49.4261 109.05 56.548 103.799 61.799C98.548 67.05 91.4261 70 84 70H28ZM133 84C134.857 84 136.637 83.2625 137.95 81.9497C139.263 80.637 140 78.8565 140 77C140 75.1435 139.263 73.363 137.95 72.0503C136.637 70.7375 134.857 70 133 70C131.04 70 129.29 70.77 128.03 72.03C127.382 72.6789 126.613 73.1938 125.766 73.545C124.92 73.8963 124.012 74.0771 123.095 74.0771C122.178 74.0771 121.27 73.8963 120.424 73.545C119.577 73.1938 118.808 72.6789 118.16 72.03C115.5 69.3 115.5 64.89 118.16 62.16C121.94 58.38 127.19 56 133 56C138.57 56 143.911 58.2125 147.849 62.1508C151.788 66.089 154 71.4305 154 77C154 82.5695 151.788 87.911 147.849 91.8492C143.911 95.7875 138.57 98 133 98H35C33.1435 98 31.363 97.2625 30.0503 95.9497C28.7375 94.637 28 92.8565 28 91C28 89.1435 28.7375 87.363 30.0503 86.0503C31.363 84.7375 33.1435 84 35 84H133ZM126 126H28C26.1435 126 24.363 125.263 23.0503 123.95C21.7375 122.637 21 120.857 21 119C21 117.143 21.7375 115.363 23.0503 114.05C24.363 112.737 26.1435 112 28 112H126C131.57 112 136.911 114.212 140.849 118.151C144.788 122.089 147 127.43 147 133C147 138.57 144.788 143.911 140.849 147.849C136.911 151.788 131.57 154 126 154C120.19 154 114.94 151.62 111.16 147.84C108.5 145.11 108.5 140.7 111.16 137.97C111.808 137.321 112.577 136.806 113.424 136.455C114.27 136.104 115.178 135.923 116.095 135.923C117.012 135.923 117.92 136.104 118.766 136.455C119.613 136.806 120.382 137.321 121.03 137.97C122.29 139.23 124.04 140 126 140C127.857 140 129.637 139.263 130.95 137.95C132.263 136.637 133 134.857 133 133C133 131.143 132.263 129.363 130.95 128.05C129.637 126.737 127.857 126 126 126Z" fill="white"/>
</svg>
