<svg width="168" height="168" viewBox="0 0 168 168" fill="none" xmlns="http://www.w3.org/2000/svg">
<path d="M42 147H73.5C76.4167 147 78.8947 145.978 80.934 143.934C82.978 141.895 84 139.417 84 136.5C84 133.583 83.0083 131.105 81.025 129.066C79.0417 127.022 76.5917 126 73.675 126H64.75L61.25 117.6C59.6167 113.75 57.05 110.689 53.55 108.416C50.05 106.139 46.2 105 42 105C36.1667 105 31.2083 107.042 27.125 111.125C23.0417 115.208 21 120.167 21 126C21 131.833 23.0417 136.792 27.125 140.875C31.2083 144.958 36.1667 147 42 147Z" fill="white"/>
<path fill-rule="evenodd" clip-rule="evenodd" d="M84 49C82.0167 49 80.3553 48.328 79.016 46.984C77.672 45.6447 77 43.9833 77 42V28C77 26.0167 77.672 24.353 79.016 23.009C80.3553 21.6697 82.0167 21 84 21C85.9833 21 87.647 21.6697 88.991 23.009C90.3303 24.353 91 26.0167 91 28V42C91 43.9833 90.3303 45.6447 88.991 46.984C87.647 48.328 85.9833 49 84 49ZM118.65 63.35C117.25 61.95 116.55 60.3167 116.55 58.45C116.55 56.5833 117.25 54.95 118.65 53.55L128.45 43.575C129.85 42.175 131.511 41.475 133.434 41.475C135.361 41.475 137.025 42.175 138.425 43.575C139.825 44.975 140.525 46.6083 140.525 48.475C140.525 50.3417 139.825 51.975 138.425 53.375L128.45 63.35C127.05 64.75 125.417 65.45 123.55 65.45C121.683 65.45 120.05 64.75 118.65 63.35ZM140 105C138.017 105 136.355 104.328 135.016 102.984C133.672 101.645 133 99.9833 133 98C133 96.0167 133.672 94.353 135.016 93.009C136.355 91.6697 138.017 91 140 91H154C155.983 91 157.645 91.6697 158.984 93.009C160.328 94.353 161 96.0167 161 98C161 99.9833 160.328 101.645 158.984 102.984C157.645 104.328 155.983 105 154 105H140ZM128.45 152.425L118.65 142.45C117.25 141.05 116.55 139.417 116.55 137.55C116.55 135.683 117.25 134.05 118.65 132.65C120.05 131.25 121.683 130.55 123.55 130.55C125.417 130.55 127.05 131.25 128.45 132.65L138.425 142.45C139.825 143.85 140.525 145.511 140.525 147.434C140.525 149.361 139.825 151.025 138.425 152.425C137.025 153.825 135.361 154.525 133.434 154.525C131.511 154.525 129.85 153.825 128.45 152.425ZM39.55 63.35L29.575 53.375C28.175 51.975 27.475 50.3417 27.475 48.475C27.475 46.6083 28.175 44.975 29.575 43.575C30.975 42.175 32.6387 41.475 34.566 41.475C36.4887 41.475 38.15 42.175 39.55 43.575L49.35 53.55C50.75 54.95 51.45 56.5833 51.45 58.45C51.45 60.3167 50.75 61.95 49.35 63.35C47.95 64.75 46.3167 65.45 44.45 65.45C42.5833 65.45 40.95 64.75 39.55 63.35ZM42.7 91C44.3333 80.9667 49 72.625 56.7 65.975C64.4 59.325 73.5 56 84 56C95.6667 56 105.583 60.0833 113.75 68.25C121.917 76.4167 126 86.3333 126 98C126 107.1 123.403 115.236 118.209 122.409C113.02 129.586 106.283 134.633 98 137.55C98 131.625 96.6 117.6 73.5 117.6C70.875 100.696 55.125 90.125 42.7 91Z" fill="white"/>
<path fill-rule="evenodd" clip-rule="evenodd" d="M84 49C82.0167 49 80.3553 48.328 79.016 46.984C77.672 45.6447 77 43.9833 77 42V28C77 26.0167 77.672 24.353 79.016 23.009C80.3553 21.6697 82.0167 21 84 21C85.9833 21 87.647 21.6697 88.991 23.009C90.3303 24.353 91 26.0167 91 28V42C91 43.9833 90.3303 45.6447 88.991 46.984C87.647 48.328 85.9833 49 84 49ZM118.65 63.35C117.25 61.95 116.55 60.3167 116.55 58.45C116.55 56.5833 117.25 54.95 118.65 53.55L128.45 43.575C129.85 42.175 131.511 41.475 133.434 41.475C135.361 41.475 137.025 42.175 138.425 43.575C139.825 44.975 140.525 46.6083 140.525 48.475C140.525 50.3417 139.825 51.975 138.425 53.375L128.45 63.35C127.05 64.75 125.417 65.45 123.55 65.45C121.683 65.45 120.05 64.75 118.65 63.35ZM140 105C138.017 105 136.355 104.328 135.016 102.984C133.672 101.645 133 99.9833 133 98C133 96.0167 133.672 94.353 135.016 93.009C136.355 91.6697 138.017 91 140 91H154C155.983 91 157.645 91.6697 158.984 93.009C160.328 94.353 161 96.0167 161 98C161 99.9833 160.328 101.645 158.984 102.984C157.645 104.328 155.983 105 154 105H140ZM128.45 152.425L118.65 142.45C117.25 141.05 116.55 139.417 116.55 137.55C116.55 135.683 117.25 134.05 118.65 132.65C120.05 131.25 121.683 130.55 123.55 130.55C125.417 130.55 127.05 131.25 128.45 132.65L138.425 142.45C139.825 143.85 140.525 145.511 140.525 147.434C140.525 149.361 139.825 151.025 138.425 152.425C137.025 153.825 135.361 154.525 133.434 154.525C131.511 154.525 129.85 153.825 128.45 152.425ZM39.55 63.35L29.575 53.375C28.175 51.975 27.475 50.3417 27.475 48.475C27.475 46.6083 28.175 44.975 29.575 43.575C30.975 42.175 32.6387 41.475 34.566 41.475C36.4887 41.475 38.15 42.175 39.55 43.575L49.35 53.55C50.75 54.95 51.45 56.5833 51.45 58.45C51.45 60.3167 50.75 61.95 49.35 63.35C47.95 64.75 46.3167 65.45 44.45 65.45C42.5833 65.45 40.95 64.75 39.55 63.35ZM42.7 91C44.3333 80.9667 49 72.625 56.7 65.975C64.4 59.325 73.5 56 84 56C95.6667 56 105.583 60.0833 113.75 68.25C121.917 76.4167 126 86.3333 126 98C126 107.1 123.403 115.236 118.209 122.409C113.02 129.586 106.283 134.633 98 137.55C98 131.625 96.6 117.6 73.5 117.6C70.875 100.696 55.125 90.125 42.7 91Z" fill="#FFEA00"/>
</svg>
