<svg width="168" height="168" viewBox="0 0 168 168" fill="none" xmlns="http://www.w3.org/2000/svg">
<g clip-path="url(#clip0_20_83)">
<path d="M43.659 126.262C44.3135 126.481 44.9186 126.826 45.4396 127.278C45.9607 127.73 46.3875 128.281 46.6956 128.898C47.0038 129.515 47.1872 130.187 47.2355 130.875C47.2838 131.564 47.196 132.255 46.977 132.909L41.727 148.659C41.5293 149.337 41.1968 149.968 40.7495 150.515C40.3021 151.061 39.7491 151.512 39.1236 151.839C38.498 152.167 37.8128 152.365 37.1089 152.422C36.4049 152.479 35.6968 152.393 35.0268 152.17C34.3568 151.946 33.7388 151.59 33.2097 151.122C32.6806 150.655 32.2513 150.085 31.9476 149.447C31.6438 148.81 31.4717 148.118 31.4417 147.412C31.4118 146.706 31.5244 146.002 31.773 145.341L37.023 129.591C37.4617 128.27 38.4073 127.177 39.6517 126.553C40.8962 125.928 42.3376 125.824 43.659 126.262ZM75.159 126.262C75.8135 126.481 76.4186 126.826 76.9396 127.278C77.4607 127.73 77.8875 128.281 78.1956 128.898C78.5038 129.515 78.6872 130.187 78.7355 130.875C78.7838 131.564 78.696 132.255 78.477 132.909L67.977 164.409C67.7793 165.087 67.4468 165.718 66.9995 166.265C66.5521 166.811 65.9991 167.262 65.3736 167.589C64.748 167.917 64.0628 168.115 63.3589 168.172C62.6549 168.229 61.9468 168.143 61.2768 167.92C60.6068 167.696 59.9888 167.34 59.4597 166.872C58.9306 166.405 58.5013 165.835 58.1976 165.197C57.8938 164.56 57.7217 163.868 57.6917 163.162C57.6618 162.456 57.7744 161.752 58.023 161.091L68.523 129.591C68.9617 128.27 69.9073 127.177 71.1517 126.553C72.3962 125.928 73.8376 125.824 75.159 126.262ZM106.659 126.262C107.314 126.481 107.919 126.826 108.44 127.278C108.961 127.73 109.387 128.281 109.696 128.898C110.004 129.515 110.187 130.187 110.236 130.875C110.284 131.564 110.196 132.255 109.977 132.909L104.727 148.659C104.529 149.337 104.197 149.968 103.749 150.515C103.302 151.061 102.749 151.512 102.124 151.839C101.498 152.167 100.813 152.365 100.109 152.422C99.4049 152.479 98.6968 152.393 98.0268 152.17C97.3568 151.946 96.7388 151.59 96.2097 151.122C95.6806 150.655 95.2513 150.085 94.9476 149.447C94.6438 148.81 94.4717 148.118 94.4418 147.412C94.4118 146.706 94.5244 146.002 94.773 145.341L100.023 129.591C100.462 128.27 101.407 127.177 102.652 126.553C103.896 125.928 105.338 125.824 106.659 126.262ZM138.159 126.262C138.814 126.481 139.419 126.826 139.94 127.278C140.461 127.73 140.887 128.281 141.196 128.898C141.504 129.515 141.687 130.187 141.736 130.875C141.784 131.564 141.696 132.255 141.477 132.909L130.977 164.409C130.779 165.087 130.447 165.718 129.999 166.265C129.552 166.811 128.999 167.262 128.374 167.589C127.748 167.917 127.063 168.115 126.359 168.172C125.655 168.229 124.947 168.143 124.277 167.92C123.607 167.696 122.989 167.34 122.46 166.872C121.931 166.405 121.501 165.835 121.198 165.197C120.894 164.56 120.722 163.868 120.692 163.162C120.662 162.456 120.774 161.752 121.023 161.091L131.523 129.591C131.962 128.27 132.907 127.177 134.152 126.553C135.396 125.928 136.838 125.824 138.159 126.262ZM140.753 52.7835C138.572 41.7917 132.932 31.7857 124.658 24.2285C116.384 16.6713 105.909 11.9593 94.7651 10.7815C83.6211 9.60361 72.3927 12.0217 62.7214 17.6821C53.0501 23.3425 45.4432 31.9484 41.013 42.2415C36.0448 41.6691 31.0121 42.1169 26.2229 43.5572C21.4337 44.9976 16.989 47.4002 13.1607 50.6181C9.3324 53.836 6.20118 57.8014 3.95874 62.2716C1.71629 66.7417 0.409813 71.6225 0.119287 76.6151C-0.171239 81.6077 0.560301 86.6071 2.26912 91.3072C3.97794 96.0072 6.62808 100.309 10.0573 103.949C13.4865 107.59 17.6226 110.492 22.2123 112.478C26.8021 114.464 31.749 115.492 36.75 115.5H136.5C144.492 115.509 152.188 112.48 158.03 107.027C163.872 101.574 167.423 94.1043 167.964 86.131C168.504 78.1576 165.994 70.2769 160.942 64.085C155.889 57.8932 148.672 53.8532 140.753 52.7835Z" fill="white"/>
</g>
<defs>
<clipPath id="clip0_20_83">
<rect width="168" height="168" fill="white"/>
</clipPath>
</defs>
</svg>
