<svg width="168" height="168" viewBox="0 0 168 168" fill="none" xmlns="http://www.w3.org/2000/svg">
<path d="M42 133C40.0167 133 38.353 132.328 37.009 130.984C35.6697 129.645 35 127.983 35 126C35 124.017 35.6697 122.355 37.009 121.016C38.353 119.672 40.0167 119 42 119C43.9833 119 45.647 119.672 46.991 121.016C48.3303 122.355 49 124.017 49 126C49 127.983 48.3303 129.645 46.991 130.984C45.647 132.328 43.9833 133 42 133ZM126 133C124.017 133 122.355 132.328 121.016 130.984C119.672 129.645 119 127.983 119 126C119 124.017 119.672 122.355 121.016 121.016C122.355 119.672 124.017 119 126 119C127.983 119 129.645 119.672 130.984 121.016C132.328 122.355 133 124.017 133 126C133 127.983 132.328 129.645 130.984 130.984C129.645 132.328 127.983 133 126 133ZM63 161C61.0167 161 59.3553 160.328 58.016 158.984C56.672 157.645 56 155.983 56 154C56 152.017 56.672 150.355 58.016 149.016C59.3553 147.672 61.0167 147 63 147C64.9833 147 66.647 147.672 67.991 149.016C69.3303 150.355 70 152.017 70 154C70 155.983 69.3303 157.645 67.991 158.984C66.647 160.328 64.9833 161 63 161ZM84 133C82.0167 133 80.3553 132.328 79.016 130.984C77.672 129.645 77 127.983 77 126C77 124.017 77.672 122.355 79.016 121.016C80.3553 119.672 82.0167 119 84 119C85.9833 119 87.647 119.672 88.991 121.016C90.3303 122.355 91 124.017 91 126C91 127.983 90.3303 129.645 88.991 130.984C87.647 132.328 85.9833 133 84 133ZM105 161C103.017 161 101.355 160.328 100.016 158.984C98.672 157.645 98 155.983 98 154C98 152.017 98.672 150.355 100.016 149.016C101.355 147.672 103.017 147 105 147C106.983 147 108.647 147.672 109.991 149.016C111.33 150.355 112 152.017 112 154C112 155.983 111.33 157.645 109.991 158.984C108.647 160.328 106.983 161 105 161ZM52.5 112C41.8833 112 32.8137 108.236 25.291 100.709C17.7637 93.1863 14 84.1167 14 73.5C14 63.8167 17.2083 55.3583 23.625 48.125C30.0417 40.8917 37.975 36.6333 47.425 35.35C51.1583 28.7 56.2637 23.478 62.741 19.684C69.2137 15.8947 76.3 14 84 14C94.5 14 103.628 17.3553 111.384 24.066C119.145 30.772 123.842 39.1417 125.475 49.175C133.525 49.875 140.292 53.2 145.775 59.15C151.258 65.1 154 72.2167 154 80.5C154 89.25 150.939 96.6887 144.816 102.816C138.689 108.939 131.25 112 122.5 112H52.5Z" fill="white"/>
</svg>
