<svg width="168" height="168" viewBox="0 0 168 168" fill="none" xmlns="http://www.w3.org/2000/svg">
<path d="M84 35C82.0167 35 80.3553 34.328 79.016 32.984C77.672 31.6447 77 29.9833 77 28V14C77 12.0167 77.672 10.353 79.016 9.009C80.3553 7.66967 82.0167 7 84 7C85.9833 7 87.647 7.66967 88.991 9.009C90.3303 10.353 91 12.0167 91 14V28C91 29.9833 90.3303 31.6447 88.991 32.984C87.647 34.328 85.9833 35 84 35ZM118.65 49.35C117.367 48.0667 116.725 46.4613 116.725 44.534C116.725 42.6113 117.367 40.95 118.65 39.55L128.45 29.575C129.85 28.175 131.511 27.475 133.434 27.475C135.361 27.475 137.025 28.175 138.425 29.575C139.708 30.8583 140.35 32.4917 140.35 34.475C140.35 36.4583 139.708 38.0917 138.425 39.375L128.45 49.35C127.167 50.6333 125.533 51.275 123.55 51.275C121.567 51.275 119.933 50.6333 118.65 49.35ZM140 91C138.017 91 136.355 90.328 135.016 88.984C133.672 87.6447 133 85.9833 133 84C133 82.0167 133.672 80.353 135.016 79.009C136.355 77.6697 138.017 77 140 77H154C155.983 77 157.645 77.6697 158.984 79.009C160.328 80.353 161 82.0167 161 84C161 85.9833 160.328 87.6447 158.984 88.984C157.645 90.328 155.983 91 154 91H140ZM84 161C82.0167 161 80.3553 160.328 79.016 158.984C77.672 157.645 77 155.983 77 154V140C77 138.017 77.672 136.355 79.016 135.016C80.3553 133.672 82.0167 133 84 133C85.9833 133 87.647 133.672 88.991 135.016C90.3303 136.355 91 138.017 91 140V154C91 155.983 90.3303 157.645 88.991 158.984C87.647 160.328 85.9833 161 84 161ZM39.55 49.35L29.575 39.55C28.175 38.15 27.475 36.4583 27.475 34.475C27.475 32.4917 28.175 30.8583 29.575 29.575C30.8583 28.2917 32.4917 27.65 34.475 27.65C36.4583 27.65 38.0917 28.2917 39.375 29.575L49.35 39.55C50.6333 40.8333 51.275 42.4667 51.275 44.45C51.275 46.4333 50.6333 48.0667 49.35 49.35C47.95 50.6333 46.3167 51.275 44.45 51.275C42.5833 51.275 40.95 50.6333 39.55 49.35ZM128.45 138.425L118.65 128.45C117.367 127.05 116.725 125.389 116.725 123.466C116.725 121.539 117.367 119.933 118.65 118.65C119.933 117.367 121.539 116.725 123.466 116.725C125.389 116.725 127.05 117.367 128.45 118.65L138.425 128.45C139.825 129.733 140.495 131.367 140.434 133.35C140.378 135.333 139.708 137.025 138.425 138.425C137.025 139.825 135.333 140.525 133.35 140.525C131.367 140.525 129.733 139.825 128.45 138.425ZM14 91C12.0167 91 10.3553 90.328 9.016 88.984C7.672 87.6447 7 85.9833 7 84C7 82.0167 7.672 80.353 9.016 79.009C10.3553 77.6697 12.0167 77 14 77H28C29.9833 77 31.647 77.6697 32.991 79.009C34.3303 80.353 35 82.0167 35 84C35 85.9833 34.3303 87.6447 32.991 88.984C31.647 90.328 29.9833 91 28 91H14ZM29.575 138.425C28.2917 137.142 27.65 135.508 27.65 133.525C27.65 131.542 28.2917 129.908 29.575 128.625L39.55 118.65C40.8333 117.367 42.4387 116.725 44.366 116.725C46.2887 116.725 47.95 117.367 49.35 118.65C50.75 120.05 51.45 121.714 51.45 123.641C51.45 125.564 50.75 127.225 49.35 128.625L39.55 138.425C38.15 139.825 36.4583 140.525 34.475 140.525C32.4917 140.525 30.8583 139.825 29.575 138.425ZM84 126C72.3333 126 62.4167 121.917 54.25 113.75C46.0833 105.583 42 95.6667 42 84C42 72.3333 46.0833 62.4167 54.25 54.25C62.4167 46.0833 72.3333 42 84 42C95.6667 42 105.583 46.0833 113.75 54.25C121.917 62.4167 126 72.3333 126 84C126 95.6667 121.917 105.583 113.75 113.75C105.583 121.917 95.6667 126 84 126ZM96.25 88.984C103.95 88.984 98.2917 109.258 103.775 103.775C109.258 98.2917 56 91.7 56 84C56 76.3 109.258 69.7083 103.775 64.225C98.2917 58.7417 103.95 88.984 96.25 88.984C88.55 88.984 109.258 98.2917 103.775 103.775C98.2917 109.258 56 76.3 56 84C56 91.7 98.2917 58.7417 103.775 64.225C109.258 69.7083 88.55 88.984 96.25 88.984Z" fill="#FFEA00"/>
</svg>
