<svg width="71" height="39" viewBox="0 0 71 39" fill="none" xmlns="http://www.w3.org/2000/svg">
<path d="M24.75 19.5V8.25C24.75 6.45979 24.0388 4.7429 22.773 3.47703C21.5071 2.21116 19.7902 1.5 18 1.5C16.2098 1.5 14.4929 2.21116 13.227 3.47703C11.9611 4.7429 11.25 6.45979 11.25 8.25V19.5C10.2132 20.6748 9.50117 22.0999 9.1842 23.6344C8.86723 25.1688 8.95633 26.7594 9.44271 28.2488C9.92909 29.7383 10.7959 31.0749 11.9573 32.1266C13.1188 33.1782 14.5347 33.9085 16.065 34.245C16.7007 34.3899 17.3485 34.4753 18 34.5C19.7409 34.5081 21.4468 34.0111 22.911 33.0692C24.3752 32.1273 25.5347 30.781 26.2492 29.1934C26.9636 27.6058 27.2022 25.845 26.9361 24.1245C26.67 22.404 25.9106 20.7976 24.75 19.5ZM21.75 30.105C20.5565 31.1632 18.9915 31.704 17.3994 31.6083C15.8072 31.5127 14.3182 30.7885 13.26 29.595C12.2018 28.4015 11.661 26.8366 11.7566 25.2444C11.8523 23.6522 12.5765 22.1632 13.77 21.105C13.9117 20.9661 14.0245 20.8004 14.1017 20.6176C14.179 20.4348 14.2192 20.2385 14.22 20.04V8.25C14.22 7.25544 14.6151 6.30161 15.3183 5.59835C16.0216 4.89509 16.9754 4.5 17.97 4.5C18.9645 4.5 19.9184 4.89509 20.6216 5.59835C21.3249 6.30161 21.72 7.25544 21.72 8.25V20.16C21.7208 20.3585 21.761 20.5548 21.8382 20.7376C21.9155 20.9204 22.0282 21.0861 22.17 21.225C22.7831 21.8173 23.263 22.5335 23.5776 23.3258C23.8923 24.1181 24.0344 24.9684 23.9947 25.82C23.955 26.6715 23.7342 27.5049 23.3471 28.2644C22.9601 29.024 22.4156 29.6924 21.75 30.225V30.105ZM19.5 22.92V18.75C19.5 18.3522 19.3419 17.9706 19.0606 17.6893C18.7793 17.408 18.3978 17.25 18 17.25C17.6022 17.25 17.2206 17.408 16.9393 17.6893C16.658 17.9706 16.5 18.3522 16.5 18.75V22.92C16.0466 23.1818 15.6696 23.5576 15.4064 24.0102C15.1433 24.4629 15.0031 24.9765 15 25.5C15 26.2957 15.3161 27.0587 15.8787 27.6213C16.4413 28.1839 17.2043 28.5 18 28.5C18.7956 28.5 19.5587 28.1839 20.1213 27.6213C20.6839 27.0587 21 26.2957 21 25.5C20.9968 24.9765 20.8567 24.4629 20.5936 24.0102C20.3304 23.5576 19.9534 23.1818 19.5 22.92Z" fill="black"/>
<path d="M55.4653 8.08C55.9613 8.176 56.3293 8.344 56.5693 8.584C56.8253 8.824 56.9533 9.104 56.9533 9.424C56.9533 9.952 56.8013 10.336 56.4973 10.576C56.2093 10.816 55.7453 10.912 55.1053 10.864C53.6653 10.752 52.5373 10.68 51.7213 10.648C50.9213 10.6 49.8653 10.568 48.5533 10.552C47.9613 13.496 47.4173 16.456 46.9213 19.432C46.7453 20.52 46.5613 21.784 46.3693 23.224C46.1773 24.648 46.0493 25.8 45.9853 26.68C45.9533 27.144 45.7613 27.504 45.4093 27.76C45.0573 28 44.6333 28.12 44.1373 28.12C43.6093 28.12 43.2013 27.992 42.9133 27.736C42.6253 27.48 42.4813 27.144 42.4813 26.728C42.4813 26.344 42.5373 25.712 42.6493 24.832C42.7773 23.936 42.9213 23 43.0813 22.024C43.2573 21.048 43.3933 20.2 43.4893 19.48C43.6653 18.264 43.8653 17.056 44.0893 15.856C44.3133 14.656 44.5373 13.52 44.7613 12.448C44.8093 12.208 44.8653 11.936 44.9293 11.632C44.9933 11.312 45.0653 10.96 45.1453 10.576C43.5773 10.624 42.3453 10.752 41.4492 10.96C40.5533 11.168 39.9133 11.464 39.5293 11.848C39.1613 12.216 38.9773 12.696 38.9773 13.288C38.9773 13.832 39.1373 14.352 39.4573 14.848C39.5213 14.96 39.5533 15.08 39.5533 15.208C39.5533 15.512 39.3693 15.8 39.0013 16.072C38.6493 16.328 38.2813 16.456 37.8973 16.456C37.6253 16.456 37.4013 16.376 37.2253 16.216C36.9053 15.944 36.6413 15.56 36.4333 15.064C36.2253 14.552 36.1213 13.976 36.1213 13.336C36.1213 11.976 36.5613 10.888 37.4413 10.072C38.3373 9.24 39.6893 8.632 41.4973 8.248C43.3213 7.864 45.6573 7.672 48.5052 7.672C50.2653 7.672 51.6653 7.704 52.7053 7.768C53.7613 7.832 54.6813 7.936 55.4653 8.08ZM61.7154 22.648C61.9234 22.648 62.0834 22.744 62.1954 22.936C62.3234 23.128 62.3874 23.392 62.3874 23.728C62.3874 24.368 62.2354 24.864 61.9314 25.216C61.3394 25.936 60.4994 26.6 59.4114 27.208C58.3394 27.816 57.1874 28.12 55.9554 28.12C54.2754 28.12 52.9714 27.664 52.0434 26.752C51.1154 25.84 50.6514 24.592 50.6514 23.008C50.6514 21.904 50.8834 20.88 51.3474 19.936C51.8114 18.976 52.4514 18.216 53.2674 17.656C54.0994 17.096 55.0354 16.816 56.0754 16.816C57.0034 16.816 57.7474 17.096 58.3074 17.656C58.8674 18.2 59.1474 18.944 59.1474 19.888C59.1474 20.992 58.7474 21.944 57.9474 22.744C57.1634 23.528 55.8274 24.152 53.9394 24.616C54.3394 25.352 55.0994 25.72 56.2194 25.72C56.9394 25.72 57.7554 25.472 58.6674 24.976C59.5954 24.464 60.3954 23.8 61.0674 22.984C61.2594 22.76 61.4754 22.648 61.7154 22.648ZM55.6674 19.168C55.0754 19.168 54.5714 19.512 54.1554 20.2C53.7554 20.888 53.5554 21.72 53.5554 22.696V22.744C54.4994 22.52 55.2434 22.184 55.7874 21.736C56.3314 21.288 56.6034 20.768 56.6034 20.176C56.6034 19.872 56.5154 19.632 56.3394 19.456C56.1794 19.264 55.9554 19.168 55.6674 19.168ZM70.406 20.68C70.406 21.944 70.11 23.144 69.518 24.28C68.942 25.4 68.166 26.312 67.19 27.016C66.23 27.72 65.198 28.088 64.094 28.12C63.886 31.208 63.414 33.784 62.678 35.848C61.942 37.928 60.862 38.968 59.438 38.968C58.574 38.968 57.934 38.656 57.518 38.032C57.102 37.408 56.894 36.544 56.894 35.44C56.894 33.872 57.254 32.04 57.974 29.944C58.694 27.864 59.806 25.568 61.31 23.056C61.31 20.72 61.294 19.096 61.262 18.184C61.246 17.72 61.43 17.352 61.814 17.08C62.198 16.808 62.678 16.672 63.254 16.672C63.59 16.672 63.83 16.744 63.974 16.888C64.134 17.016 64.222 17.28 64.238 17.68C64.238 18.08 64.246 18.376 64.262 18.568C64.774 17.928 65.278 17.472 65.774 17.2C66.27 16.912 66.798 16.768 67.358 16.768C68.254 16.768 68.982 17.128 69.542 17.848C70.118 18.568 70.406 19.512 70.406 20.68ZM64.214 25.816C64.79 25.688 65.318 25.376 65.798 24.88C66.294 24.368 66.686 23.744 66.974 23.008C67.262 22.256 67.406 21.472 67.406 20.656C67.406 20.176 67.31 19.816 67.118 19.576C66.926 19.32 66.67 19.192 66.35 19.192C65.774 19.192 65.078 19.8 64.262 21.016C64.246 21.72 64.238 22.752 64.238 24.112C64.238 24.848 64.23 25.416 64.214 25.816ZM59.63 36.616C60.062 36.616 60.422 35.672 60.71 33.784C60.998 31.912 61.182 29.576 61.262 26.776C60.574 28.376 60.03 29.904 59.63 31.36C59.23 32.816 59.03 34.04 59.03 35.032C59.03 35.544 59.094 35.936 59.222 36.208C59.334 36.48 59.47 36.616 59.63 36.616Z" fill="black"/>
</svg>
