<svg width="72" height="39" viewBox="0 0 72 39" fill="none" xmlns="http://www.w3.org/2000/svg">
<path fill-rule="evenodd" clip-rule="evenodd" d="M24.75 8.25V19.5C25.9106 20.7976 26.67 22.404 26.9361 24.1245C27.2022 25.845 26.9636 27.6058 26.2492 29.1934C25.5347 30.781 24.3752 32.1273 22.911 33.0692C21.4468 34.0111 19.7409 34.5081 18 34.5C17.3485 34.4753 16.7007 34.3899 16.065 34.245C14.5347 33.9085 13.1188 33.1782 11.9573 32.1266C10.7959 31.0749 9.92909 29.7383 9.44271 28.2488C8.95633 26.7594 8.86723 25.1688 9.1842 23.6344C9.50117 22.0999 10.2132 20.6748 11.25 19.5V8.25C11.25 6.45979 11.9611 4.7429 13.227 3.47703C14.4929 2.21116 16.2098 1.5 18 1.5C19.7902 1.5 21.5071 2.21116 22.773 3.47703C24.0388 4.7429 24.75 6.45979 24.75 8.25ZM17.3994 31.6083C18.9915 31.704 20.5565 31.1632 21.75 30.105V30.225C22.4156 29.6924 22.9601 29.024 23.3471 28.2644C23.7342 27.5049 23.955 26.6715 23.9947 25.82C24.0344 24.9684 23.8923 24.1181 23.5776 23.3258C23.263 22.5335 22.7831 21.8173 22.17 21.225C22.0282 21.0861 21.9155 20.9204 21.8382 20.7376C21.761 20.5548 21.7208 20.3585 21.72 20.16V8.25C21.72 7.25544 21.3249 6.30161 20.6216 5.59835C19.9184 4.89509 18.9645 4.5 17.97 4.5C16.9754 4.5 16.0216 4.89509 15.3183 5.59835C14.6151 6.30161 14.22 7.25544 14.22 8.25V20.04C14.2192 20.2385 14.179 20.4348 14.1017 20.6176C14.0245 20.8004 13.9117 20.9661 13.77 21.105C12.5765 22.1632 11.8523 23.6522 11.7566 25.2444C11.661 26.8366 12.2018 28.4015 13.26 29.595C14.3182 30.7885 15.8072 31.5127 17.3994 31.6083Z" fill="black"/>
<path fill-rule="evenodd" clip-rule="evenodd" d="M19.5019 12.25V22.42C19.9553 22.6818 20.3323 23.0576 20.5954 23.5102C20.8586 23.9629 20.9987 24.4765 21.0019 25C21.0019 25.7957 20.6858 26.5587 20.1232 27.1213C19.5606 27.6839 18.7975 28 18.0019 28C17.2062 28 16.4432 27.6839 15.8806 27.1213C15.3179 26.5587 15.0019 25.7957 15.0019 25C15.005 24.4765 15.1451 23.9629 15.4083 23.5102C15.6714 23.0576 16.0485 22.6818 16.5019 22.42V12.25C16.5019 11.8522 16.6599 11.4706 16.9412 11.1893C17.2225 10.908 17.604 10.75 18.0019 10.75C18.3997 10.75 18.7812 10.908 19.0625 11.1893C19.3438 11.4706 19.5019 11.8522 19.5019 12.25Z" fill="black"/>
<path d="M56.4653 8.08C56.9613 8.176 57.3293 8.344 57.5693 8.584C57.8253 8.824 57.9533 9.104 57.9533 9.424C57.9533 9.952 57.8013 10.336 57.4973 10.576C57.2093 10.816 56.7453 10.912 56.1053 10.864C54.6653 10.752 53.5373 10.68 52.7213 10.648C51.9213 10.6 50.8653 10.568 49.5533 10.552C48.9613 13.496 48.4173 16.456 47.9213 19.432C47.7453 20.52 47.5613 21.784 47.3693 23.224C47.1773 24.648 47.0493 25.8 46.9853 26.68C46.9533 27.144 46.7613 27.504 46.4093 27.76C46.0573 28 45.6333 28.12 45.1373 28.12C44.6093 28.12 44.2013 27.992 43.9133 27.736C43.6253 27.48 43.4813 27.144 43.4813 26.728C43.4813 26.344 43.5373 25.712 43.6493 24.832C43.7773 23.936 43.9213 23 44.0813 22.024C44.2573 21.048 44.3933 20.2 44.4893 19.48C44.6653 18.264 44.8653 17.056 45.0893 15.856C45.3133 14.656 45.5373 13.52 45.7613 12.448C45.8093 12.208 45.8653 11.936 45.9293 11.632C45.9933 11.312 46.0653 10.96 46.1453 10.576C44.5773 10.624 43.3453 10.752 42.4492 10.96C41.5533 11.168 40.9133 11.464 40.5293 11.848C40.1613 12.216 39.9773 12.696 39.9773 13.288C39.9773 13.832 40.1373 14.352 40.4573 14.848C40.5213 14.96 40.5533 15.08 40.5533 15.208C40.5533 15.512 40.3693 15.8 40.0013 16.072C39.6493 16.328 39.2813 16.456 38.8973 16.456C38.6253 16.456 38.4013 16.376 38.2253 16.216C37.9053 15.944 37.6413 15.56 37.4333 15.064C37.2253 14.552 37.1213 13.976 37.1213 13.336C37.1213 11.976 37.5613 10.888 38.4413 10.072C39.3373 9.24 40.6893 8.632 42.4973 8.248C44.3213 7.864 46.6573 7.672 49.5052 7.672C51.2653 7.672 52.6653 7.704 53.7053 7.768C54.7613 7.832 55.6813 7.936 56.4653 8.08ZM62.7154 22.648C62.9234 22.648 63.0834 22.744 63.1954 22.936C63.3234 23.128 63.3874 23.392 63.3874 23.728C63.3874 24.368 63.2354 24.864 62.9314 25.216C62.3394 25.936 61.4994 26.6 60.4114 27.208C59.3394 27.816 58.1874 28.12 56.9554 28.12C55.2754 28.12 53.9714 27.664 53.0434 26.752C52.1154 25.84 51.6514 24.592 51.6514 23.008C51.6514 21.904 51.8834 20.88 52.3474 19.936C52.8114 18.976 53.4514 18.216 54.2674 17.656C55.0994 17.096 56.0354 16.816 57.0754 16.816C58.0034 16.816 58.7474 17.096 59.3074 17.656C59.8674 18.2 60.1474 18.944 60.1474 19.888C60.1474 20.992 59.7474 21.944 58.9474 22.744C58.1634 23.528 56.8274 24.152 54.9394 24.616C55.3394 25.352 56.0994 25.72 57.2194 25.72C57.9394 25.72 58.7554 25.472 59.6674 24.976C60.5954 24.464 61.3954 23.8 62.0674 22.984C62.2594 22.76 62.4754 22.648 62.7154 22.648ZM56.6674 19.168C56.0754 19.168 55.5714 19.512 55.1554 20.2C54.7554 20.888 54.5554 21.72 54.5554 22.696V22.744C55.4994 22.52 56.2434 22.184 56.7874 21.736C57.3314 21.288 57.6034 20.768 57.6034 20.176C57.6034 19.872 57.5154 19.632 57.3394 19.456C57.1794 19.264 56.9554 19.168 56.6674 19.168ZM71.406 20.68C71.406 21.944 71.11 23.144 70.518 24.28C69.942 25.4 69.166 26.312 68.19 27.016C67.23 27.72 66.198 28.088 65.094 28.12C64.886 31.208 64.414 33.784 63.678 35.848C62.942 37.928 61.862 38.968 60.438 38.968C59.574 38.968 58.934 38.656 58.518 38.032C58.102 37.408 57.894 36.544 57.894 35.44C57.894 33.872 58.254 32.04 58.974 29.944C59.694 27.864 60.806 25.568 62.31 23.056C62.31 20.72 62.294 19.096 62.262 18.184C62.246 17.72 62.43 17.352 62.814 17.08C63.198 16.808 63.678 16.672 64.254 16.672C64.59 16.672 64.83 16.744 64.974 16.888C65.134 17.016 65.222 17.28 65.238 17.68C65.238 18.08 65.246 18.376 65.262 18.568C65.774 17.928 66.278 17.472 66.774 17.2C67.27 16.912 67.798 16.768 68.358 16.768C69.254 16.768 69.982 17.128 70.542 17.848C71.118 18.568 71.406 19.512 71.406 20.68ZM65.214 25.816C65.79 25.688 66.318 25.376 66.798 24.88C67.294 24.368 67.686 23.744 67.974 23.008C68.262 22.256 68.406 21.472 68.406 20.656C68.406 20.176 68.31 19.816 68.118 19.576C67.926 19.32 67.67 19.192 67.35 19.192C66.774 19.192 66.078 19.8 65.262 21.016C65.246 21.72 65.238 22.752 65.238 24.112C65.238 24.848 65.23 25.416 65.214 25.816ZM60.63 36.616C61.062 36.616 61.422 35.672 61.71 33.784C61.998 31.912 62.182 29.576 62.262 26.776C61.574 28.376 61.03 29.904 60.63 31.36C60.23 32.816 60.03 34.04 60.03 35.032C60.03 35.544 60.094 35.936 60.222 36.208C60.334 36.48 60.47 36.616 60.63 36.616Z" fill="black"/>
</svg>
