<svg width="71" height="38" viewBox="0 0 71 38" fill="none" xmlns="http://www.w3.org/2000/svg">
<path d="M19.5 22.92V8.25C19.5 7.85218 19.3419 7.47064 19.0606 7.18934C18.7793 6.90804 18.3978 6.75 18 6.75C17.6022 6.75 17.2206 6.90804 16.9393 7.18934C16.658 7.47064 16.5 7.85218 16.5 8.25V22.92C16.0466 23.1818 15.6696 23.5576 15.4064 24.0102C15.1433 24.4629 15.0031 24.9765 15 25.5C15 26.2957 15.3161 27.0587 15.8787 27.6213C16.4413 28.1839 17.2043 28.5 18 28.5C18.7956 28.5 19.5587 28.1839 20.1213 27.6213C20.6839 27.0587 21 26.2957 21 25.5C20.9968 24.9765 20.8567 24.4629 20.5936 24.0102C20.3304 23.5576 19.9534 23.1818 19.5 22.92ZM24.75 19.5V8.25C24.75 6.45979 24.0388 4.7429 22.773 3.47703C21.5071 2.21116 19.7902 1.5 18 1.5C16.2098 1.5 14.4929 2.21116 13.227 3.47703C11.9611 4.7429 11.25 6.45979 11.25 8.25V19.5C10.2132 20.6748 9.50117 22.0999 9.1842 23.6344C8.86723 25.1688 8.95633 26.7594 9.44271 28.2488C9.92909 29.7383 10.7959 31.0749 11.9573 32.1266C13.1188 33.1782 14.5347 33.9085 16.065 34.245C16.7007 34.3899 17.3485 34.4753 18 34.5C19.7409 34.5081 21.4468 34.0111 22.911 33.0692C24.3752 32.1273 25.5347 30.781 26.2492 29.1934C26.9636 27.6058 27.2022 25.845 26.9361 24.1245C26.67 22.404 25.9106 20.7976 24.75 19.5ZM21.75 30.105C20.9599 30.7474 20.0194 31.1781 19.0169 31.3566C18.0145 31.5352 16.9831 31.4556 16.0198 31.1256C15.0566 30.7955 14.1932 30.2257 13.5109 29.4698C12.8287 28.714 12.35 27.7969 12.12 26.805C11.8882 25.8023 11.9183 24.7569 12.2072 23.7692C12.4962 22.7815 13.0344 21.8847 13.77 21.165C13.9117 21.0261 14.0245 20.8604 14.1017 20.6776C14.179 20.4948 14.2192 20.2985 14.22 20.1V8.25C14.22 7.25544 14.6151 6.30161 15.3183 5.59835C16.0216 4.89509 16.9754 4.5 17.97 4.5C18.9645 4.5 19.9184 4.89509 20.6216 5.59835C21.3249 6.30161 21.72 7.25544 21.72 8.25V20.16C21.7208 20.3585 21.761 20.5548 21.8382 20.7376C21.9155 20.9204 22.0282 21.0861 22.17 21.225C22.7831 21.8173 23.263 22.5335 23.5776 23.3258C23.8923 24.1181 24.0344 24.9684 23.9947 25.82C23.955 26.6715 23.7342 27.5049 23.3471 28.2644C22.9601 29.024 22.4156 29.6924 21.75 30.225V30.105Z" fill="black"/>
<path d="M55.4653 7.08C55.9613 7.176 56.3293 7.344 56.5693 7.584C56.8253 7.824 56.9533 8.104 56.9533 8.424C56.9533 8.952 56.8013 9.336 56.4973 9.576C56.2093 9.816 55.7453 9.912 55.1053 9.864C53.6653 9.752 52.5373 9.68 51.7213 9.648C50.9213 9.6 49.8653 9.568 48.5533 9.552C47.9613 12.496 47.4173 15.456 46.9213 18.432C46.7453 19.52 46.5613 20.784 46.3693 22.224C46.1773 23.648 46.0493 24.8 45.9853 25.68C45.9533 26.144 45.7613 26.504 45.4093 26.76C45.0573 27 44.6333 27.12 44.1373 27.12C43.6093 27.12 43.2013 26.992 42.9133 26.736C42.6253 26.48 42.4813 26.144 42.4813 25.728C42.4813 25.344 42.5373 24.712 42.6493 23.832C42.7773 22.936 42.9213 22 43.0813 21.024C43.2573 20.048 43.3933 19.2 43.4893 18.48C43.6653 17.264 43.8653 16.056 44.0893 14.856C44.3133 13.656 44.5373 12.52 44.7613 11.448C44.8093 11.208 44.8653 10.936 44.9293 10.632C44.9933 10.312 45.0653 9.96 45.1453 9.576C43.5773 9.624 42.3453 9.752 41.4492 9.96C40.5533 10.168 39.9133 10.464 39.5293 10.848C39.1613 11.216 38.9773 11.696 38.9773 12.288C38.9773 12.832 39.1373 13.352 39.4573 13.848C39.5213 13.96 39.5533 14.08 39.5533 14.208C39.5533 14.512 39.3693 14.8 39.0013 15.072C38.6493 15.328 38.2813 15.456 37.8973 15.456C37.6253 15.456 37.4013 15.376 37.2253 15.216C36.9053 14.944 36.6413 14.56 36.4333 14.064C36.2253 13.552 36.1213 12.976 36.1213 12.336C36.1213 10.976 36.5613 9.888 37.4413 9.072C38.3373 8.24 39.6893 7.632 41.4973 7.248C43.3213 6.864 45.6573 6.672 48.5052 6.672C50.2653 6.672 51.6653 6.704 52.7053 6.768C53.7613 6.832 54.6813 6.936 55.4653 7.08ZM61.7154 21.648C61.9234 21.648 62.0834 21.744 62.1954 21.936C62.3234 22.128 62.3874 22.392 62.3874 22.728C62.3874 23.368 62.2354 23.864 61.9314 24.216C61.3394 24.936 60.4994 25.6 59.4114 26.208C58.3394 26.816 57.1874 27.12 55.9554 27.12C54.2754 27.12 52.9714 26.664 52.0434 25.752C51.1154 24.84 50.6514 23.592 50.6514 22.008C50.6514 20.904 50.8834 19.88 51.3474 18.936C51.8114 17.976 52.4514 17.216 53.2674 16.656C54.0994 16.096 55.0354 15.816 56.0754 15.816C57.0034 15.816 57.7474 16.096 58.3074 16.656C58.8674 17.2 59.1474 17.944 59.1474 18.888C59.1474 19.992 58.7474 20.944 57.9474 21.744C57.1634 22.528 55.8274 23.152 53.9394 23.616C54.3394 24.352 55.0994 24.72 56.2194 24.72C56.9394 24.72 57.7554 24.472 58.6674 23.976C59.5954 23.464 60.3954 22.8 61.0674 21.984C61.2594 21.76 61.4754 21.648 61.7154 21.648ZM55.6674 18.168C55.0754 18.168 54.5714 18.512 54.1554 19.2C53.7554 19.888 53.5554 20.72 53.5554 21.696V21.744C54.4994 21.52 55.2434 21.184 55.7874 20.736C56.3314 20.288 56.6034 19.768 56.6034 19.176C56.6034 18.872 56.5154 18.632 56.3394 18.456C56.1794 18.264 55.9554 18.168 55.6674 18.168ZM70.406 19.68C70.406 20.944 70.11 22.144 69.518 23.28C68.942 24.4 68.166 25.312 67.19 26.016C66.23 26.72 65.198 27.088 64.094 27.12C63.886 30.208 63.414 32.784 62.678 34.848C61.942 36.928 60.862 37.968 59.438 37.968C58.574 37.968 57.934 37.656 57.518 37.032C57.102 36.408 56.894 35.544 56.894 34.44C56.894 32.872 57.254 31.04 57.974 28.944C58.694 26.864 59.806 24.568 61.31 22.056C61.31 19.72 61.294 18.096 61.262 17.184C61.246 16.72 61.43 16.352 61.814 16.08C62.198 15.808 62.678 15.672 63.254 15.672C63.59 15.672 63.83 15.744 63.974 15.888C64.134 16.016 64.222 16.28 64.238 16.68C64.238 17.08 64.246 17.376 64.262 17.568C64.774 16.928 65.278 16.472 65.774 16.2C66.27 15.912 66.798 15.768 67.358 15.768C68.254 15.768 68.982 16.128 69.542 16.848C70.118 17.568 70.406 18.512 70.406 19.68ZM64.214 24.816C64.79 24.688 65.318 24.376 65.798 23.88C66.294 23.368 66.686 22.744 66.974 22.008C67.262 21.256 67.406 20.472 67.406 19.656C67.406 19.176 67.31 18.816 67.118 18.576C66.926 18.32 66.67 18.192 66.35 18.192C65.774 18.192 65.078 18.8 64.262 20.016C64.246 20.72 64.238 21.752 64.238 23.112C64.238 23.848 64.23 24.416 64.214 24.816ZM59.63 35.616C60.062 35.616 60.422 34.672 60.71 32.784C60.998 30.912 61.182 28.576 61.262 25.776C60.574 27.376 60.03 28.904 59.63 30.36C59.23 31.816 59.03 33.04 59.03 34.032C59.03 34.544 59.094 34.936 59.222 35.208C59.334 35.48 59.47 35.616 59.63 35.616Z" fill="black"/>
</svg>
